<svg width="20" height="20" viewBox="0 0 20 20" fill="none" xmlns="http://www.w3.org/2000/svg">
<path d="M5.8 3.05176e-05H14.2C17.4032 3.05176e-05 20 2.59678 20 5.80003V14.2C20 17.4033 17.4032 20 14.2 20H5.8C2.59675 20 0 17.4033 0 14.2V5.80003C0 2.59678 2.59675 3.05176e-05 5.8 3.05176e-05ZM5.6 2.00001C3.61177 2.00001 2 3.61179 2 5.60001V14.4C2 16.3882 3.61177 18 5.6 18H14.4C16.3882 18 18 16.3882 18 14.4V5.60001C18 3.61179 16.3882 2.00001 14.4 2.00001H5.6ZM15.25 3.50001C15.9404 3.50001 16.5 4.05966 16.5 4.75001C16.5 5.44037 15.9404 6.00001 15.25 6.00001C14.5596 6.00001 14 5.44037 14 4.75001C14 4.05966 14.5596 3.50001 15.25 3.50001ZM10 5.00001C12.7614 5.00001 15 7.23859 15 10C15 12.7614 12.7614 15 10 15C7.23857 15 5 12.7614 5 10C5 7.23859 7.23857 5.00001 10 5.00001ZM10 7.00001C8.3431 7.00001 7 8.34321 7 10C7 11.6569 8.3431 13 10 13C11.6569 13 13 11.6569 13 10C13 8.34321 11.6569 7.00001 10 7.00001Z" fill="white"/>
</svg>
